<?xml version="1.0" encoding="UTF-8" standalone="no"?>
<svg
   version="1.0"
   width="874.25177pt"
   height="890pt"
   viewBox="0 0 874.25179 890.00006"
   preserveAspectRatio="xMidYMid"
   id="svg2462"
   sodipodi:docname="Falcons Main Logo (2023) - White.svg"
   inkscape:version="1.2.2 (732a01da63, 2022-12-09)"
   inkscape:export-filename="..\Raster\Falcons Main Logo (2023) - White.png"
   inkscape:export-xdpi="127.07"
   inkscape:export-ydpi="127.07"
   xmlns:inkscape="http://www.inkscape.org/namespaces/inkscape"
   xmlns:sodipodi="http://sodipodi.sourceforge.net/DTD/sodipodi-0.dtd"
   xmlns:xlink="http://www.w3.org/1999/xlink"
   xmlns="http://www.w3.org/2000/svg"
   xmlns:svg="http://www.w3.org/2000/svg"
   xmlns:rdf="http://www.w3.org/1999/02/22-rdf-syntax-ns#"
   xmlns:cc="http://creativecommons.org/ns#"
   xmlns:dc="http://purl.org/dc/elements/1.1/">
  <defs
     id="defs2466">
    <inkscape:path-effect
       effect="powermask"
       id="path-effect31193"
       is_visible="true"
       lpeversion="1"
       uri="#mask-powermask-path-effect31193"
       invert="false"
       hide_mask="false"
       background="true"
       background_color="#ffffffff" />
    <linearGradient
       inkscape:collect="always"
       id="linearGradient23684">
      <stop
         style="stop-color:#011d45;stop-opacity:1;"
         offset="0"
         id="stop23680" />
      <stop
         style="stop-color:#011d45;stop-opacity:1;"
         offset="0.44736841"
         id="stop23777" />
      <stop
         style="stop-color:#00c6c2;stop-opacity:1;"
         offset="0.65350878"
         id="stop23682" />
    </linearGradient>
    <inkscape:path-effect
       effect="powermask"
       id="path-effect22005"
       is_visible="true"
       lpeversion="1"
       uri="#mask-powermask-path-effect22005"
       invert="false"
       hide_mask="false"
       background="true"
       background_color="#ffffffff" />
    <rect
       x="-202.94209"
       y="-38.200867"
       width="1180.6455"
       height="506.16147"
       id="rect4670" />
    <rect
       x="580.17566"
       y="766.40485"
       width="113.40882"
       height="95.502167"
       id="rect2434" />
    <rect
       x="704.00262"
       y="908.28156"
       width="928.54059"
       height="212.72021"
       id="rect4614" />
    <inkscape:path-effect
       effect="spiro"
       id="path-effect262"
       is_visible="true"
       lpeversion="1" />
    <inkscape:path-effect
       effect="spiro"
       id="path-effect248"
       is_visible="true"
       lpeversion="1" />
    <inkscape:path-effect
       effect="spiro"
       id="path-effect187"
       is_visible="true"
       lpeversion="1" />
    <filter
       id="mask-powermask-path-effect21239_inverse"
       inkscape:label="filtermask-powermask-path-effect21239"
       style="color-interpolation-filters:sRGB"
       height="100"
       width="100"
       x="-50"
       y="-50">
      <feColorMatrix
         id="mask-powermask-path-effect21239_primitive1"
         values="1"
         type="saturate"
         result="fbSourceGraphic" />
      <feColorMatrix
         id="mask-powermask-path-effect21239_primitive2"
         values="-1 0 0 0 1 0 -1 0 0 1 0 0 -1 0 1 0 0 0 1 0 "
         in="fbSourceGraphic" />
    </filter>
    <filter
       id="mask-powermask-path-effect21249_inverse"
       inkscape:label="filtermask-powermask-path-effect21249"
       style="color-interpolation-filters:sRGB"
       height="100"
       width="100"
       x="-50"
       y="-50">
      <feColorMatrix
         id="mask-powermask-path-effect21249_primitive1"
         values="1"
         type="saturate"
         result="fbSourceGraphic" />
      <feColorMatrix
         id="mask-powermask-path-effect21249_primitive2"
         values="-1 0 0 0 1 0 -1 0 0 1 0 0 -1 0 1 0 0 0 1 0 "
         in="fbSourceGraphic" />
    </filter>
    <filter
       id="mask-powermask-path-effect21261_inverse"
       inkscape:label="filtermask-powermask-path-effect21261"
       style="color-interpolation-filters:sRGB"
       height="100"
       width="100"
       x="-50"
       y="-50">
      <feColorMatrix
         id="mask-powermask-path-effect21261_primitive1"
         values="1"
         type="saturate"
         result="fbSourceGraphic" />
      <feColorMatrix
         id="mask-powermask-path-effect21261_primitive2"
         values="-1 0 0 0 1 0 -1 0 0 1 0 0 -1 0 1 0 0 0 1 0 "
         in="fbSourceGraphic" />
    </filter>
    <mask
       maskUnits="userSpaceOnUse"
       id="mask-powermask-path-effect22005">
      <path
         id="path22003"
         style="display:inline;opacity:1;fill:#000000;stroke:#000000;stroke-width:10;stroke-linecap:round;stroke-linejoin:round;stroke-miterlimit:5;stroke-dasharray:none;paint-order:markers stroke fill"
         sodipodi:type="inkscape:offset"
         inkscape:radius="-40.713997"
         inkscape:original="M -1571.0312 1354.9863 C -1655.9379 1356.006 -1739.2402 1368.8152 -1818.834 1393.1895 L -1824.252 1394.8477 L -1816.1289 1403.2969 C -1770.5159 1450.7441 -1726.0583 1525.7498 -1673.0234 1644.7324 C -1660.836 1672.0745 -1643.4631 1712.7922 -1623.8965 1759.877 C -1591.3639 1838.1628 -1579.424 1866.4872 -1561.5508 1907.7812 L -1560.0234 1911.3125 L -1558.582 1908.1562 C -1553.5089 1897.0509 -1528.4497 1837.8146 -1505.4512 1782.5605 C -1476.1155 1712.0811 -1458.3335 1670.238 -1446.0879 1642.877 C -1392.6286 1523.4307 -1348.474 1449.3077 -1302.8594 1402.4355 L -1295.4961 1394.8691 L -1309.957 1390.5293 C -1363.8796 1374.3402 -1427.1761 1362.5871 -1485.668 1357.9043 C -1514.2485 1355.6162 -1542.7291 1354.6464 -1571.0312 1354.9863 z "
         transform="translate(3277.4739,-1059.4892)"
         inkscape:label="Inner Portion"
         d="m -1570.543,1395.6973 c -61.5407,0.739 -122.0921,7.9889 -180.8359,21.5625 37.8355,50.6804 74.3119,118.3955 115.543,210.8964 12.4492,27.9295 29.8852,68.8076 49.5371,116.0977 11.6957,28.1444 18.7323,44.9279 26.3105,63.0176 5.7838,-13.7636 11.1677,-26.4652 16.9492,-40.3555 29.3819,-70.5902 47.2244,-112.5979 59.7891,-140.6719 41.1393,-91.9192 77.2247,-158.9031 114.6523,-208.9882 -39.1823,-8.9788 -81.1462,-15.6314 -120.3203,-18.7676 -27.348,-2.1894 -54.5807,-3.1158 -81.625,-2.791 z" />
    </mask>
    <linearGradient
       inkscape:collect="always"
       xlink:href="#linearGradient23684"
       id="linearGradient1"
       gradientUnits="userSpaceOnUse"
       x1="-145.17619"
       y1="694.7027"
       x2="2897.51"
       y2="694.7027" />
    <rect
       x="-202.94209"
       y="-38.200867"
       width="1180.6455"
       height="506.16147"
       id="rect4670-2" />
  </defs>
  <sodipodi:namedview
     pagecolor="#959595"
     bordercolor="#666666"
     borderopacity="1"
     objecttolerance="10"
     gridtolerance="10"
     guidetolerance="10"
     inkscape:pageopacity="0"
     inkscape:pageshadow="2"
     inkscape:window-width="2560"
     inkscape:window-height="1369"
     id="namedview2464"
     showgrid="false"
     inkscape:zoom="0.50000002"
     inkscape:cx="592.99998"
     inkscape:cy="619.99998"
     inkscape:window-x="-8"
     inkscape:window-y="-8"
     inkscape:window-maximized="1"
     inkscape:current-layer="g15764"
     inkscape:document-rotation="0"
     inkscape:snap-bbox="false"
     inkscape:bbox-nodes="true"
     inkscape:snap-bbox-edge-midpoints="true"
     inkscape:bbox-paths="true"
     inkscape:snap-bbox-midpoints="true"
     inkscape:object-paths="true"
     inkscape:snap-intersection-paths="true"
     inkscape:snap-smooth-nodes="true"
     inkscape:snap-midpoints="true"
     inkscape:snap-object-midpoints="true"
     inkscape:snap-center="true"
     inkscape:snap-text-baseline="true"
     inkscape:snap-global="false"
     inkscape:pagecheckerboard="true"
     inkscape:document-units="pt"
     inkscape:showpageshadow="2"
     inkscape:deskcolor="#5f5f5f" />
  <metadata
     id="metadata2432">
Created by potrace 1.15, written by Peter Selinger 2001-2017
<rdf:RDF>
  <cc:Work
     rdf:about="">
    <dc:format>image/svg+xml</dc:format>
    <dc:type
       rdf:resource="http://purl.org/dc/dcmitype/StillImage" />
  </cc:Work>
</rdf:RDF>
</metadata>
  <g
     inkscape:groupmode="layer"
     id="g15764"
     inkscape:label="Redrawn"
     transform="translate(-1710.4547,-442.26469)"
     style="display:inline">
    <g
       aria-label="FALCONS"
       transform="translate(-158.60359,501.79539)"
       id="text8435"
       style="font-size:120px;font-family:Poppins;-inkscape-font-specification:Poppins;letter-spacing:6px;fill:#ffffff;stroke-width:0.75"
       inkscape:label="Top Text (Path)" />
    <g
       aria-label="5032"
       id="text668"
       style="font-size:115px;line-height:1.25;letter-spacing:3px;display:inline;opacity:1;fill:#ffffff;stroke-width:0.75"
       inkscape:label="Bottom Text">
      <path
         d="m 2035.6435,1252.1668 q 16.905,0 24.955,6.9 8.165,6.9 8.165,18.4 0,7.475 -3.91,13.8 -3.795,6.21 -11.73,10.005 -7.82,3.68 -19.435,3.68 -8.51,0 -16.905,-2.07 -8.28,-2.07 -14.26,-5.865 l 8.165,-17.135 q 4.83,3.22 10.58,4.945 5.865,1.725 11.73,1.725 5.865,0 9.315,-2.185 3.565,-2.3 3.565,-6.325 0,-4.025 -3.45,-6.095 -3.45,-2.07 -12.19,-2.07 h -21.85 l 4.025,-47.035 h 51.29 v 17.595 h -32.43 l -1.035,11.73 z"
         style="font-weight:800;font-family:Montserrat;-inkscape-font-specification:'Montserrat Ultra-Bold'"
         id="path962" />
      <path
         d="m 2113.8536,1304.9518 q -10.35,0 -18.4,-4.945 -8.05,-4.945 -12.65,-14.375 -4.485,-9.545 -4.485,-22.54 0,-12.995 4.485,-22.425 4.6,-9.545 12.65,-14.49 8.05,-4.945 18.4,-4.945 10.235,0 18.285,4.945 8.05,4.945 12.535,14.49 4.6,9.43 4.6,22.425 0,12.995 -4.6,22.54 -4.485,9.43 -12.535,14.375 -8.05,4.945 -18.285,4.945 z m 0,-18.63 q 5.75,0 9.085,-5.52 3.45,-5.635 3.45,-17.71 0,-12.075 -3.45,-17.595 -3.335,-5.635 -9.085,-5.635 -5.865,0 -9.315,5.635 -3.335,5.52 -3.335,17.595 0,12.075 3.335,17.71 3.45,5.52 9.315,5.52 z"
         style="font-weight:800;font-family:Montserrat;-inkscape-font-specification:'Montserrat Ultra-Bold'"
         id="path964" />
      <path
         d="m 2200.2285,1255.0418 q 10.005,2.07 15.295,8.28 5.405,6.095 5.405,14.835 0,7.13 -3.91,13.225 -3.795,6.095 -11.73,9.89 -7.82,3.68 -19.435,3.68 -8.51,0 -16.905,-2.07 -8.28,-2.07 -14.375,-5.865 l 8.28,-17.135 q 4.715,3.22 10.58,4.945 5.98,1.725 11.73,1.725 5.865,0 9.315,-2.185 3.45,-2.185 3.45,-6.21 0,-7.82 -12.305,-7.82 h -9.545 v -14.375 l 14.375,-15.525 h -31.74 v -17.595 h 58.19 v 14.26 z"
         style="font-weight:800;font-family:Montserrat;-inkscape-font-specification:'Montserrat Ultra-Bold'"
         id="path966" />
      <path
         d="m 2292.9286,1285.2868 v 18.055 h -62.675 v -14.26 l 30.13,-28.175 q 4.37,-4.14 5.865,-7.015 1.495,-2.99 1.495,-5.98 0,-3.91 -2.645,-6.095 -2.645,-2.185 -7.705,-2.185 -4.485,0 -8.28,2.07 -3.68,1.955 -6.095,5.75 l -16.905,-9.43 q 4.715,-7.82 13.225,-12.305 8.51,-4.485 20.125,-4.485 9.2,0 16.215,2.99 7.13,2.99 11.04,8.625 4.025,5.52 4.025,12.88 0,6.555 -2.875,12.42 -2.76,5.75 -10.81,13.11 l -15.18,14.03 z"
         style="font-weight:800;font-family:Montserrat;-inkscape-font-specification:'Montserrat Ultra-Bold'"
         id="path968" />
    </g>
    <path
       id="path686"
       style="color:#000000;fill:#ffffff;fill-opacity:1;stroke:none;stroke-width:0.749999;stroke-linecap:round;stroke-linejoin:round;stroke-miterlimit:5;stroke-dasharray:none;paint-order:markers stroke fill"
       inkscape:label="Outer Portion"
       d="m 2147.2901,623.26903 c -3.5625,0.002 -7.1231,0.0232 -10.6802,0.0659 -85.3701,1.02548 -169.1465,13.90629 -249.205,38.42286 l -5.4141,1.65527 a 5.0008153,5.0008153 0 0 0 -2.1431,8.25 l 8.1226,8.44775 c 44.9131,46.71925 89.2113,121.25767 142.1411,240.0044 12.1552,27.2698 29.525,67.97038 49.081,115.02979 32.5348,78.2911 44.4914,106.6573 62.3731,147.9712 l 1.5278,3.5332 a 5.0008153,5.0008153 0 0 0 9.1348,0.088 l 1.4399,-3.1553 c 5.2795,-11.5576 30.1924,-70.4765 53.1988,-125.7495 29.3299,-70.46546 47.1051,-112.28811 59.3115,-139.56153 53.3548,-119.21281 97.3464,-192.8614 142.248,-239.00098 l 7.3638,-7.56299 a 5.0008153,5.0008153 0 0 0 -2.1431,-8.27783 l -14.4609,-4.34033 c -54.3161,-16.30709 -117.882,-28.10683 -176.751,-32.81982 -25.1403,-2.01269 -50.2071,-3.01075 -75.145,-3 z m 10.8984,34.00927 c 21.5933,0.24114 43.287,1.23562 65.0479,2.98828 41.6216,3.35244 86.1172,10.45143 127.7036,20.03907 a 4.985362,5.0156855 0 0 1 2.8799,7.89111 c -39.1457,52.70281 -77.1058,123.52431 -120.4497,220.9585 -13.2224,29.72327 -32.0437,74.30666 -63.0484,149.24854 -6.1094,14.7677 -11.7969,28.2613 -17.8974,42.8672 a 4.985362,5.0156855 0 0 1 -9.1919,-0.01 c -7.9977,-19.2076 -15.4287,-37.0367 -27.7749,-66.9272 -20.7307,-50.18964 -39.1246,-93.57644 -52.2319,-123.16145 -43.4392,-98.04741 -81.811,-169.64201 -121.3887,-222.97852 a 4.985362,5.0156855 0 0 1 2.874,-7.88672 c 62.352,-14.49491 126.6163,-22.23547 191.9194,-23.02441 v 0.004 c 7.1743,-0.0869 14.3605,-0.0892 21.5581,-0.009 z" />
    <path
       id="path688"
       style="font-variation-settings:normal;display:inline;fill:#ffffff;fill-opacity:1;stroke:none;stroke-width:2;stroke-linecap:round;stroke-linejoin:round;stroke-miterlimit:4;stroke-dasharray:none;stroke-dashoffset:0;stroke-opacity:1;stop-color:#000000"
       d="m 2003.189,709.86473 c 47.6714,67.17761 115.7839,223.9289 144.6416,299.35107 28.8577,-75.42217 96.9702,-232.17346 144.6416,-299.35107 -48.8428,13.42478 -89.7583,46.70046 -127.0649,82.1748 h -0.026 v -26.34521 c 0,-6.19999 0.4005,-10.00049 1.0005,-10.00049 0.6,0 3.8001,1.39961 7.1001,3.09961 7.6,3.8 9.4001,3.2998 8.6001,-2.2002 -1.2,-8.99999 -17.6006,-31.2998 -26.1006,-35.2998 -14.9,-6.99999 -24.0993,8.60013 -25.2993,43.1001 l -0.3486,27.72217 c -37.3285,-35.50278 -78.2669,-68.81663 -127.1445,-82.25098 z"
       inkscape:label="Bird" />
    <g
       aria-label="FALCONS"
       transform="translate(-277.63559,448.03791)"
       id="text668-2"
       style="font-size:115px;line-height:1.25;letter-spacing:3px;display:inline;fill:#ffffff;stroke-width:0.75"
       inkscape:label="Bottom Text">
      <path
         d="m 2141.6059,123.26466 5.3539,16.88136 33.8723,-10.74251 5.3191,16.77173 -33.8723,10.74251 8.3437,26.30861 -21.7046,6.88355 -24.3358,-76.73343 60.1809,-19.086211 5.3191,16.771731 z"
         style="font-weight:800;font-family:Montserrat;-inkscape-font-specification:'Montserrat Ultra-Bold'"
         id="path947" />
      <path
         d="m 2259.5143,143.1152 -33.4272,6.43011 -3.2567,16.55321 -22.8118,4.38812 19.6889,-85.763242 22.0213,-4.236053 50.2145,72.316485 -23.2635,4.47501 z m -9.7215,-15.22777 -15.0297,-23.34113 -5.2977,27.25133 z"
         style="font-weight:800;font-family:Montserrat;-inkscape-font-specification:'Montserrat Ultra-Bold'"
         id="path949" />
      <path
         d="m 2293.6909,72.419421 22.6628,-2.207026 6.0526,62.150975 38.2292,-3.72296 1.75,17.96999 -60.892,5.92999 z"
         style="font-weight:800;font-family:Montserrat;-inkscape-font-specification:'Montserrat Ultra-Bold'"
         id="path951" />
      <path
         d="m 2413.269,146.98315 q -12.648,0.22543 -22.8606,-4.88339 -10.0998,-5.22584 -16.0189,-14.66686 -5.9192,-9.44102 -6.1344,-21.5141 -0.2152,-12.073083 5.3638,-21.719035 5.579,-9.645952 15.4881,-15.113405 10.0221,-5.584485 22.6701,-5.809914 11.0382,-0.196738 19.9615,3.554841 8.9233,3.751579 14.9185,11.005893 l -14.2541,13.366137 q -7.9868,-9.289147 -19.14,-9.090359 -6.5539,0.116813 -11.6769,3.083577 -5.008,2.964715 -7.7882,8.305109 -2.6674,5.223363 -2.5465,12.007286 0.121,6.78392 2.9748,12.0239 2.9667,5.12294 8.0772,7.90731 5.2254,2.78233 11.7794,2.66551 11.1532,-0.19878 18.8039,-9.76664 l 14.7213,12.8497 q -5.7329,7.46335 -14.5168,11.53052 -8.7839,4.06718 -19.8222,4.26392 z"
         style="font-weight:800;font-family:Montserrat;-inkscape-font-specification:'Montserrat Ultra-Bold'"
         id="path953" />
      <path
         d="m 2499.6582,149.69525 q -12.7296,-0.94982 -22.5341,-7.1014 -9.6898,-6.14302 -14.8283,-16.09797 -5.0238,-9.94638 -4.1339,-21.87323 0.8899,-11.926844 7.3342,-21.017538 6.559,-9.082137 17.0531,-13.719145 10.6088,-4.628451 23.3384,-3.678632 12.7296,0.949818 22.4194,7.092844 9.8045,6.151582 14.8283,16.097968 5.1385,9.954943 4.2486,21.881793 -0.8899,11.92684 -7.4489,21.00898 -6.4443,9.09069 -17.0531,13.71914 -10.4941,4.63701 -23.2237,3.68719 z m 1.4033,-18.80771 q 6.0781,0.45351 11.2233,-2.04557 5.1452,-2.49908 8.3973,-7.44581 3.2607,-5.06142 3.7655,-11.82761 0.5049,-6.76619 -1.9771,-12.140767 -2.4734,-5.489258 -7.1907,-8.724236 -4.7174,-3.234978 -10.7955,-3.688495 -6.0781,-0.453516 -11.2233,2.045566 -5.1453,2.499083 -8.4059,7.560495 -3.2521,4.946732 -3.757,11.712927 -0.5048,6.76619 1.9686,12.25545 2.482,5.37457 7.1993,8.60955 4.7174,3.23498 10.7955,3.6885 z"
         style="font-weight:800;font-family:Montserrat;-inkscape-font-specification:'Montserrat Ultra-Bold'"
         id="path955" />
      <path
         d="m 2649.1633,88.138406 -14.5526,79.173684 -18.4362,-3.38868 -27.195,-48.6122 -7.7545,42.18826 -21.9424,-4.03315 14.5526,-79.173677 18.4362,3.388677 27.195,48.6122 7.7545,-42.188264 z"
         style="font-weight:800;font-family:Montserrat;-inkscape-font-specification:'Montserrat Ultra-Bold'"
         id="path957" />
      <path
         d="m 2679.7231,181.9899 q -9.3356,-2.89798 -17.406,-7.93192 -8.0704,-5.03393 -12.3686,-10.58267 l 12.1166,-13.81907 q 4.1051,5.00714 10.2668,9.20773 6.1617,4.20059 12.7515,6.24622 12.5206,3.8867 14.4639,-2.37361 1.0228,-3.29489 -2.1242,-5.95761 -3.0032,-2.73845 -10.3654,-6.95049 -8.097,-4.56052 -13.2702,-8.45427 -5.1391,-4.00357 -7.8466,-10.02182 -2.7075,-6.01825 -0.2187,-14.03584 2.182,-7.02911 7.7649,-11.43715 5.6169,-4.51787 14.218,-5.46029 8.7109,-0.908328 19.8037,2.53515 7.5783,2.35248 14.3914,6.39405 6.8472,3.93173 11.4257,8.96542 l -11.7114,14.06527 q -9.142,-9.3402 -19.466,-12.54503 -6.4799,-2.01153 -10.059,-0.95513 -3.545,0.94657 -4.4997,4.02181 -0.9546,3.07524 2.0827,5.70386 3.0372,2.62862 10.3237,6.69674 8.2068,4.59461 13.2361,8.56409 5.1732,3.89375 7.8807,9.912 2.8514,5.94252 0.3626,13.9601 -2.148,6.91928 -7.7308,11.32732 -5.5828,4.40804 -14.3278,5.4262 -8.7109,0.90833 -19.6939,-2.50106 z"
         style="font-weight:800;font-family:Montserrat;-inkscape-font-specification:'Montserrat Ultra-Bold'"
         id="path959" />
    </g>
  </g>
  <g
     inkscape:groupmode="layer"
     id="layer3"
     inkscape:label="Text and Logo Guides"
     style="display:none"
     transform="translate(-1987.6974,6.9950247)">
    <circle
       style="display:inline;opacity:1;fill:none;stroke:#800000;stroke-width:1.5;stroke-linecap:round;stroke-linejoin:round;stroke-miterlimit:4;stroke-dasharray:none"
       id="circle636"
       cx="2424.8232"
       cy="159.46979"
       r="14.139874"
       inkscape:transform-center-y="14.139876" />
    <circle
       style="display:inline;fill:none;stroke:#800000;stroke-width:1.5;stroke-linecap:round;stroke-linejoin:round;stroke-miterlimit:4;stroke-dasharray:none"
       id="circle638"
       cx="2424.9651"
       cy="754.39087"
       r="14.139874"
       inkscape:transform-center-y="14.139876" />
    <path
       style="font-variation-settings:normal;opacity:1;vector-effect:none;fill:none;fill-opacity:1;stroke:#000000;stroke-width:0.283465;stroke-linecap:butt;stroke-linejoin:miter;stroke-miterlimit:4;stroke-dasharray:none;stroke-dashoffset:0;stroke-opacity:1;-inkscape-stroke:none;stop-color:#000000;stop-opacity:1"
       d="m 2424.9651,735.751 0.035,-742.746018"
       id="path640" />
    <circle
       style="display:inline;fill:none;stroke:#800000;stroke-width:1.5;stroke-linecap:round;stroke-linejoin:round;stroke-miterlimit:4;stroke-dasharray:none"
       id="circle642"
       cx="2689.4912"
       cy="199.16943"
       r="14.139874"
       inkscape:transform-center-y="14.139876" />
    <circle
       style="display:inline;fill:none;stroke:#800000;stroke-width:1.5;stroke-linecap:round;stroke-linejoin:round;stroke-miterlimit:4;stroke-dasharray:none"
       id="circle644"
       cx="2160.7371"
       cy="199.14674"
       r="14.139874"
       inkscape:transform-center-y="14.139876" />
    <rect
       style="display:inline;opacity:0.5;fill:none;stroke:#800000;stroke-width:1.99999;stroke-linecap:round;stroke-linejoin:round;stroke-miterlimit:5;paint-order:markers stroke fill"
       id="rect646"
       width="297.39868"
       height="84.627831"
       x="2276.2695"
       y="770.57751" />
    <path
       style="font-variation-settings:normal;opacity:1;vector-effect:none;fill:none;fill-opacity:1;stroke:#000000;stroke-width:0.283465;stroke-linecap:butt;stroke-linejoin:miter;stroke-miterlimit:4;stroke-dasharray:none;stroke-dashoffset:0;stroke-opacity:1;-inkscape-stroke:none;stop-color:#000000;stop-opacity:1"
       d="M 2424.9651,740.251 2807.6203,3.42583"
       id="path648" />
    <path
       id="path650"
       style="opacity:0.5;fill:none;stroke:#000000;stroke-miterlimit:1;paint-order:markers stroke fill"
       d="M 2861.4492,331.2915 A 436.62592,185.96161 0 0 1 2424.8233,517.25311 436.62592,185.96161 0 0 1 1988.1974,331.2915 436.62592,185.96161 0 0 1 2424.8233,145.32989 436.62592,185.96161 0 0 1 2861.4492,331.2915 Z" />
    <path
       style="font-variation-settings:normal;vector-effect:none;fill:none;fill-opacity:1;stroke:#000000;stroke-width:0.283465;stroke-linecap:butt;stroke-linejoin:miter;stroke-miterlimit:4;stroke-dasharray:none;stroke-dashoffset:0;stroke-opacity:1;-inkscape-stroke:none;stop-color:#000000"
       d="M 2424.9651,740.251 2042.3099,3.42583"
       id="path652" />
    <path
       style="font-variation-settings:normal;opacity:1;fill:none;fill-opacity:1;stroke:#000000;stroke-width:0.283465;stroke-linecap:butt;stroke-linejoin:miter;stroke-miterlimit:4;stroke-dasharray:none;stroke-dashoffset:0;stroke-opacity:1;stop-color:#000000;stop-opacity:1"
       d="m 2042.3099,3.425822 h 765.3104"
       id="path654" />
    <rect
       style="display:inline;opacity:0.5;fill:none;stroke:#000000;stroke-width:0.999997;stroke-linecap:butt;stroke-linejoin:miter;stroke-miterlimit:1;stroke-dasharray:none;paint-order:markers stroke fill"
       id="rect656"
       width="196.31754"
       height="180.7939"
       x="2326.9141"
       y="559.95642" />
    <rect
       style="display:inline;opacity:0.5;fill:none;stroke:#000000;stroke-width:0.999992;stroke-linecap:butt;stroke-linejoin:miter;stroke-miterlimit:1;stroke-dasharray:none;paint-order:markers stroke fill"
       id="rect658"
       width="196.31754"
       height="109.03951"
       x="2326.8413"
       y="631.71075" />
    <circle
       style="display:inline;opacity:0.614786;fill:none;stroke:#ff0000;stroke-width:0.75;stroke-miterlimit:1;paint-order:markers fill stroke"
       id="circle690"
       cx="2424.7637"
       cy="191.03215"
       r="17.200001" />
    <circle
       style="display:inline;opacity:0.614786;fill:none;stroke:#ff0000;stroke-width:0.75;stroke-miterlimit:1;paint-order:markers fill stroke"
       id="circle692"
       cx="2534.0522"
       cy="448.33206"
       r="17.200001" />
    <circle
       style="display:inline;opacity:0.614786;fill:none;stroke:#ff0000;stroke-width:0.75;stroke-miterlimit:1;paint-order:markers fill stroke"
       id="circle694"
       cx="2315.689"
       cy="448.33206"
       r="17.200001" />
    <circle
       style="display:inline;opacity:0.614786;fill:none;stroke:#ff0000;stroke-width:0.75;stroke-miterlimit:1;paint-order:markers fill stroke"
       id="circle692-2"
       cx="2518.6206"
       cy="393.58203"
       r="17.200001" />
    <circle
       style="display:inline;opacity:0.614786;fill:none;stroke:#ff0000;stroke-width:0.75;stroke-miterlimit:1;paint-order:markers fill stroke"
       id="circle694-8"
       cx="2331.7573"
       cy="393.58203"
       r="17.200001" />
  </g>
</svg>
