<?xml version="1.0" encoding="UTF-8" standalone="no"?>
<svg
   version="1.0"
   width="1080pt"
   height="1080pt"
   viewBox="0 0 1080 1080.0001"
   preserveAspectRatio="xMidYMid"
   id="svg2462"
   sodipodi:docname="Falcons Main Logo  (2023) - White - No Text.svg"
   inkscape:version="1.2.2 (732a01da63, 2022-12-09)"
   inkscape:export-filename="E:\Nextcloud (FRC)\Team Resources (Google Drive)\Team Logos\Falcons Main Logo (2023) - Blue.png"
   inkscape:export-xdpi="127.07"
   inkscape:export-ydpi="127.07"
   xmlns:inkscape="http://www.inkscape.org/namespaces/inkscape"
   xmlns:sodipodi="http://sodipodi.sourceforge.net/DTD/sodipodi-0.dtd"
   xmlns:xlink="http://www.w3.org/1999/xlink"
   xmlns="http://www.w3.org/2000/svg"
   xmlns:svg="http://www.w3.org/2000/svg"
   xmlns:rdf="http://www.w3.org/1999/02/22-rdf-syntax-ns#"
   xmlns:cc="http://creativecommons.org/ns#"
   xmlns:dc="http://purl.org/dc/elements/1.1/">
  <defs
     id="defs2466">
    <linearGradient
       inkscape:collect="always"
       id="linearGradient31657">
      <stop
         style="stop-color:#011d45;stop-opacity:1;"
         offset="0"
         id="stop31651" />
      <stop
         style="stop-color:#011d45;stop-opacity:1;"
         offset="0.44736841"
         id="stop31653" />
      <stop
         style="stop-color:#00c6c2;stop-opacity:1;"
         offset="0.56126451"
         id="stop31655" />
    </linearGradient>
    <inkscape:path-effect
       effect="powermask"
       id="path-effect31193"
       is_visible="true"
       lpeversion="1"
       uri="#mask-powermask-path-effect31193"
       invert="false"
       hide_mask="false"
       background="true"
       background_color="#ffffffff" />
    <linearGradient
       inkscape:collect="always"
       id="linearGradient23684">
      <stop
         style="stop-color:#011d45;stop-opacity:1;"
         offset="0"
         id="stop23680" />
      <stop
         style="stop-color:#011d45;stop-opacity:1;"
         offset="0.44736841"
         id="stop23777" />
      <stop
         style="stop-color:#00c6c2;stop-opacity:1;"
         offset="0.65350878"
         id="stop23682" />
    </linearGradient>
    <inkscape:path-effect
       effect="powermask"
       id="path-effect22005"
       is_visible="true"
       lpeversion="1"
       uri="#mask-powermask-path-effect22005"
       invert="false"
       hide_mask="false"
       background="false"
       background_color="#ffffffff" />
    <rect
       x="-202.94209"
       y="-38.200867"
       width="1180.6455"
       height="506.16147"
       id="rect4670" />
    <rect
       x="580.17566"
       y="766.40485"
       width="113.40882"
       height="95.502167"
       id="rect2434" />
    <rect
       x="704.00262"
       y="908.28156"
       width="928.54059"
       height="212.72021"
       id="rect4614" />
    <inkscape:path-effect
       effect="spiro"
       id="path-effect262"
       is_visible="true"
       lpeversion="1" />
    <inkscape:path-effect
       effect="spiro"
       id="path-effect248"
       is_visible="true"
       lpeversion="1" />
    <inkscape:path-effect
       effect="spiro"
       id="path-effect187"
       is_visible="true"
       lpeversion="1" />
    <filter
       id="mask-powermask-path-effect21239_inverse"
       inkscape:label="filtermask-powermask-path-effect21239"
       style="color-interpolation-filters:sRGB"
       height="100"
       width="100"
       x="-50"
       y="-50">
      <feColorMatrix
         id="mask-powermask-path-effect21239_primitive1"
         values="1"
         type="saturate"
         result="fbSourceGraphic" />
      <feColorMatrix
         id="mask-powermask-path-effect21239_primitive2"
         values="-1 0 0 0 1 0 -1 0 0 1 0 0 -1 0 1 0 0 0 1 0 "
         in="fbSourceGraphic" />
    </filter>
    <filter
       id="mask-powermask-path-effect21249_inverse"
       inkscape:label="filtermask-powermask-path-effect21249"
       style="color-interpolation-filters:sRGB"
       height="100"
       width="100"
       x="-50"
       y="-50">
      <feColorMatrix
         id="mask-powermask-path-effect21249_primitive1"
         values="1"
         type="saturate"
         result="fbSourceGraphic" />
      <feColorMatrix
         id="mask-powermask-path-effect21249_primitive2"
         values="-1 0 0 0 1 0 -1 0 0 1 0 0 -1 0 1 0 0 0 1 0 "
         in="fbSourceGraphic" />
    </filter>
    <filter
       id="mask-powermask-path-effect21261_inverse"
       inkscape:label="filtermask-powermask-path-effect21261"
       style="color-interpolation-filters:sRGB"
       height="100"
       width="100"
       x="-50"
       y="-50">
      <feColorMatrix
         id="mask-powermask-path-effect21261_primitive1"
         values="1"
         type="saturate"
         result="fbSourceGraphic" />
      <feColorMatrix
         id="mask-powermask-path-effect21261_primitive2"
         values="-1 0 0 0 1 0 -1 0 0 1 0 0 -1 0 1 0 0 0 1 0 "
         in="fbSourceGraphic" />
    </filter>
    <mask
       maskUnits="userSpaceOnUse"
       id="mask-powermask-path-effect22005">
      <path
         id="path22003"
         style="display:inline;opacity:1;fill:#000000;stroke:#000000;stroke-width:10;stroke-linecap:round;stroke-linejoin:round;stroke-miterlimit:5;stroke-dasharray:none;paint-order:markers stroke fill"
         sodipodi:type="inkscape:offset"
         inkscape:radius="-40.713997"
         inkscape:original="M -1571.0312 1354.9863 C -1655.9379 1356.006 -1739.2402 1368.8152 -1818.834 1393.1895 L -1824.252 1394.8477 L -1816.1289 1403.2969 C -1770.5159 1450.7441 -1726.0583 1525.7498 -1673.0234 1644.7324 C -1660.836 1672.0745 -1643.4631 1712.7922 -1623.8965 1759.877 C -1591.3639 1838.1628 -1579.424 1866.4872 -1561.5508 1907.7812 L -1560.0234 1911.3125 L -1558.582 1908.1562 C -1553.5089 1897.0509 -1528.4497 1837.8146 -1505.4512 1782.5605 C -1476.1155 1712.0811 -1458.3335 1670.238 -1446.0879 1642.877 C -1392.6286 1523.4307 -1348.474 1449.3077 -1302.8594 1402.4355 L -1295.4961 1394.8691 L -1309.957 1390.5293 C -1363.8796 1374.3402 -1427.1761 1362.5871 -1485.668 1357.9043 C -1514.2485 1355.6162 -1542.7291 1354.6464 -1571.0312 1354.9863 z "
         transform="translate(3277.4739,-1059.4892)"
         inkscape:label="Inner Portion"
         d="m -1570.543,1395.6973 c -61.5407,0.739 -122.0921,7.9889 -180.8359,21.5625 37.8355,50.6804 74.3119,118.3955 115.543,210.8964 12.4492,27.9295 29.8852,68.8076 49.5371,116.0977 11.6957,28.1444 18.7323,44.9279 26.3105,63.0176 5.7838,-13.7636 11.1677,-26.4652 16.9492,-40.3555 29.3819,-70.5902 47.2244,-112.5979 59.7891,-140.6719 41.1393,-91.9192 77.2247,-158.9031 114.6523,-208.9882 -39.1823,-8.9788 -81.1462,-15.6314 -120.3203,-18.7676 -27.348,-2.1894 -54.5807,-3.1158 -81.625,-2.791 z" />
    </mask>
    <radialGradient
       inkscape:collect="always"
       xlink:href="#linearGradient31657"
       id="radialGradient28135"
       cx="316.82257"
       cy="-826.64044"
       fx="316.82257"
       fy="-826.64044"
       r="1521.3431"
       gradientTransform="matrix(0.99768904,1.3927995,-1.295216,0.92755804,-1069.9445,252.04084)"
       gradientUnits="userSpaceOnUse" />
    <linearGradient
       inkscape:collect="always"
       xlink:href="#linearGradient23684"
       id="linearGradient1"
       gradientUnits="userSpaceOnUse"
       x1="-145.17619"
       y1="694.7027"
       x2="2897.51"
       y2="694.7027" />
  </defs>
  <sodipodi:namedview
     pagecolor="#5f5f5f"
     bordercolor="#666666"
     borderopacity="1"
     objecttolerance="10"
     gridtolerance="10"
     guidetolerance="10"
     inkscape:pageopacity="0"
     inkscape:pageshadow="2"
     inkscape:window-width="2560"
     inkscape:window-height="1369"
     id="namedview2464"
     showgrid="false"
     inkscape:zoom="0.35355339"
     inkscape:cx="502.04582"
     inkscape:cy="865.4987"
     inkscape:window-x="-8"
     inkscape:window-y="-8"
     inkscape:window-maximized="1"
     inkscape:current-layer="g15764"
     inkscape:document-rotation="0"
     inkscape:snap-bbox="false"
     inkscape:bbox-nodes="true"
     inkscape:snap-bbox-edge-midpoints="true"
     inkscape:bbox-paths="true"
     inkscape:snap-bbox-midpoints="true"
     inkscape:object-paths="true"
     inkscape:snap-intersection-paths="true"
     inkscape:snap-smooth-nodes="true"
     inkscape:snap-midpoints="true"
     inkscape:snap-object-midpoints="true"
     inkscape:snap-center="true"
     inkscape:snap-text-baseline="true"
     inkscape:snap-global="false"
     inkscape:pagecheckerboard="true"
     inkscape:document-units="pt"
     inkscape:showpageshadow="2"
     inkscape:deskcolor="#5f5f5f" />
  <metadata
     id="metadata2432">
Created by potrace 1.15, written by Peter Selinger 2001-2017
<rdf:RDF>
  <cc:Work
     rdf:about="">
    <dc:format>image/svg+xml</dc:format>
    <dc:type
       rdf:resource="http://purl.org/dc/dcmitype/StillImage" />
  </cc:Work>
</rdf:RDF>
</metadata>
  <g
     inkscape:groupmode="layer"
     id="g15764"
     inkscape:label="Redrawn"
     transform="translate(-743.74861,-456.83113)"
     style="display:inline">
    <g
       id="g20397">
      <path
         id="path5-2"
         style="color:#000000;display:inline;fill:#ffffff;fill-opacity:1;stroke:none;stroke-width:0.749999;stroke-linecap:round;stroke-linejoin:round;stroke-miterlimit:5;stroke-dasharray:none;paint-order:markers stroke fill"
         inkscape:label="Outer Portion"
         d="m 1281.4844,709.95657 c -3.5625,0.002 -7.1231,0.0232 -10.6802,0.0659 -85.37,1.02548 -169.1465,13.90629 -249.205,38.42286 l -5.4141,1.65527 a 5.0008153,5.0008153 0 0 0 -2.143,8.25 l 8.1225,8.44775 c 44.9132,46.71925 89.2114,121.25767 142.1411,240.00445 12.1552,27.2698 29.525,67.9703 49.0811,115.0297 32.5347,78.2911 44.4913,106.6573 62.373,147.9712 l 1.5278,3.5332 a 5.0008153,5.0008153 0 0 0 9.1348,0.088 l 1.4399,-3.1553 c 5.2795,-11.5576 30.1924,-70.4765 53.1988,-125.7495 29.3299,-70.4654 47.1051,-112.2881 59.3115,-139.5615 53.3549,-119.2128 97.3465,-192.86139 142.2481,-239.00097 l 7.3638,-7.56299 a 5.0008153,5.0008153 0 0 0 -2.1431,-8.27783 l -14.4609,-4.34033 c -54.3161,-16.30709 -117.882,-28.10683 -176.7511,-32.81982 -25.1403,-2.01269 -50.2071,-3.01075 -75.145,-3 z m 10.8984,34.00927 c 21.5933,0.24114 43.287,1.23562 65.0479,2.98828 41.6216,3.35244 86.1173,10.45143 127.7037,20.03907 a 4.985362,5.0156855 0 0 1 2.8799,7.89111 c -39.1457,52.70281 -77.1059,123.52431 -120.4498,220.9585 -13.2224,29.7233 -32.0437,74.3067 -63.0484,149.2485 -6.1094,14.7677 -11.7969,28.2613 -17.8974,42.8672 a 4.985362,5.0156855 0 0 1 -9.1919,-0.01 c -7.9977,-19.2076 -15.4287,-37.0367 -27.7749,-66.9272 -20.7307,-50.1896 -39.1246,-93.5764 -52.2319,-123.16141 -43.4392,-98.04741 -81.8109,-169.64201 -121.3887,-222.97852 a 4.985362,5.0156855 0 0 1 2.874,-7.88672 c 62.352,-14.49491 126.6163,-22.23547 191.9194,-23.02441 v 0.004 c 7.1743,-0.0869 14.3605,-0.0892 21.5581,-0.009 z" />
      <path
         id="path12-7"
         style="font-variation-settings:normal;display:inline;fill:#ffffff;fill-opacity:1;stroke:none;stroke-width:2;stroke-linecap:round;stroke-linejoin:round;stroke-miterlimit:4;stroke-dasharray:none;stroke-dashoffset:0;stroke-opacity:1;stop-color:#000000"
         d="m 1137.3834,796.55227 c 47.6714,67.17761 115.7838,223.92893 144.6415,299.35103 28.8577,-75.4221 96.9702,-232.17342 144.6416,-299.35103 -48.8428,13.42478 -89.7583,46.70046 -127.0649,82.1748 h -0.026 v -26.34521 c 0,-6.19999 0.4005,-10.00049 1.0005,-10.00049 0.6,0 3.8001,1.39961 7.1001,3.09961 7.6,3.8 9.4001,3.2998 8.6001,-2.2002 -1.2,-8.99999 -17.6006,-31.2998 -26.1006,-35.2998 -14.9,-6.99999 -24.0993,8.60013 -25.2993,43.1001 l -0.3486,27.72217 c -37.3285,-35.50278 -78.2668,-68.81663 -127.1444,-82.25098 z"
         inkscape:label="Bird" />
    </g>
  </g>
</svg>
